<svg viewBox="0 0 65 20" fill="none" xmlns="http://www.w3.org/2000/svg"><path d="M13.74 5.42c0 .04-.06.07-.19.09-.1.02-.16 0-.18-.06a4.48 4.48 0 0 0-1.66-2.53 5.24 5.24 0 0 0-3.08-.83h-.93c-.61 0-1.07.13-1.35.38-.3.26-.44.65-.44 1.18v6.36h2.22c1.2 0 2.1-.2 2.71-.58.64-.42.96-.98.96-1.68 0-.04.06-.06.18-.06.13 0 .19.02.19.06l-.03 2.68c0 .63 0 1.1.03 1.41l.03 1.56c0 .06-.06.09-.19.09-.12 0-.18-.03-.18-.09 0-.78-.33-1.4-.99-1.85a4.55 4.55 0 0 0-2.74-.71h-2.19v6.3c0 .61.09 1.06.25 1.36.17.3.47.5.93.62.45.11 1.16.17 2.12.17.04 0 .06.06.06.18s-.02.18-.06.18c-.84 0-1.5-.01-1.97-.03l-3.14-.03-2.31.03c-.41.02-.98.03-1.7.03-.06 0-.09-.06-.09-.18s.03-.18.1-.18c.71 0 1.23-.05 1.56-.14.33-.1.55-.29.65-.56.12-.3.19-.74.19-1.33v-13.64c0-.59-.06-1.02-.16-1.3a.9.9 0 0 0-.61-.55 4.21 4.21 0 0 0-1.42-.18c-.06 0-.1-.06-.1-.18 0-.11.04-.17.1-.17h13.06c.2 0 .3.09.3.26l.07 3.92Zm28.83 3.03c.5 0 .77.3.77.92a3.27 3.27 0 0 1-1.54 2.56c-.48.3-.98.44-1.51.44-.58 0-1.32-.2-2.22-.62-.37 2.7-1.32 4.74-2.84 6.16a7.92 7.92 0 0 1-5.6 2.09c-1.4 0-2.65-.31-3.76-.94a7.1 7.1 0 0 1-2.56-2.57 6.74 6.74 0 0 1-.74-5.03 6.87 6.87 0 0 1 1.42-2.83c.7-.84 1.52-1.5 2.46-1.97a6.4 6.4 0 0 1 2.87-.71 3.8 3.8 0 0 1 2.53.82c1.23-1.31 1.84-2.46 1.84-3.44a1.62 1.62 0 0 0-.7-1.44c-.17-.16-.3-.3-.37-.42a.87.87 0 0 1-.13-.5c0-.3.1-.53.28-.7a.98.98 0 0 1 .7-.27c.46 0 .83.2 1.12.59.28.4.43.91.43 1.56 0 1.1-.43 2.22-1.3 3.36a19.3 19.3 0 0 1-3.1 3.2 90.3 90.3 0 0 1-4.57 3.45l-1.78 1.33a6.62 6.62 0 0 0 3.54 4.71c.9.44 1.85.65 2.83.65a6.3 6.3 0 0 0 4.66-1.88c1.25-1.26 2-3.07 2.27-5.42l-.58-.3a24.3 24.3 0 0 0-2.06-.94 3.8 3.8 0 0 0-1.48-.32c-.3 0-.53.05-.71.17-.17.12-.25.27-.25.44 0 .24.08.51.25.83.16.35.24.6.24.76a.8.8 0 0 1-.18.5c-.12.14-.3.21-.55.21a.93.93 0 0 1-.62-.2c-.14-.16-.22-.4-.22-.74 0-.51.17-1 .5-1.47.35-.48.79-.85 1.32-1.12.56-.3 1.12-.45 1.7-.45.5 0 1.03.11 1.57.33.55.2 1.23.49 2.03.88.66.34 1.22.6 1.7.8.47.17.9.26 1.29.26.26 0 .48-.05.64-.14.19-.12.28-.26.28-.42 0-.17-.1-.4-.3-.67a2.8 2.8 0 0 1-.28-.42.88.88 0 0 1-.1-.4c0-.46.27-.69.8-.69Zm-18.3 2.07c-.1.62-.16 1.15-.16 1.59 0 .21.02.52.06.9a63 63 0 0 1 1.73-1.29 75.21 75.21 0 0 0 4.37-3.41 2.62 2.62 0 0 0-2.52-1.56c-.8 0-1.52.36-2.16 1.09a6.3 6.3 0 0 0-1.32 2.68Zm35.09-1.22c1.73.2 3.1.75 4.1 1.66a4.51 4.51 0 0 1 .62 6.13 6.38 6.38 0 0 1-2.56 1.97c-1.09.47-2.3.7-3.64.7-.57 0-1.23-.03-1.97-.08a49.06 49.06 0 0 0-2.46-.1l-2.25.04c-.41.02-.97.03-1.66.03-.07 0-.1-.06-.1-.18s.03-.18.1-.18c.6 0 1.04-.05 1.35-.14.3-.12.53-.32.65-.6.14-.29.21-.72.21-1.29v-13.64c0-.82-.14-1.36-.43-1.62-.28-.27-.87-.4-1.75-.4-.04 0-.06-.07-.06-.19 0-.11.02-.17.06-.17l1.63.03c.94.04 1.7.06 2.25.06.57 0 1.17-.03 1.78-.1a21.3 21.3 0 0 1 2-.08c1.88 0 3.32.32 4.35.97a3.14 3.14 0 0 1 1.54 2.83c0 .94-.33 1.8-.98 2.56a6.22 6.22 0 0 1-2.78 1.8Zm-2.58-7.5c-.6 0-1.01.13-1.24.4-.22.26-.34.76-.34 1.48v5.6l1.24.03a2.9 2.9 0 0 0 2.46-1.15c.58-.77.86-1.75.86-2.95 0-1.12-.25-1.96-.77-2.53-.51-.59-1.25-.88-2.21-.88Zm.58 17.23c2.7 0 4.04-1.34 4.04-4 0-1.52-.38-2.72-1.14-3.6-.76-.89-1.91-1.33-3.45-1.33a19 19 0 0 0-1.6.06v7.1c0 .65.13 1.11.4 1.39.26.25.85.38 1.75.38Z" fill="#fff"/></svg>